<mxfile host="app.diagrams.net" agent="Mozilla/5.0 (Windows NT 10.0; Win64; x64) AppleWebKit/537.36 (KHTML, like Gecko) Chrome/134.0.0.0 Safari/537.36" version="26.1.0">
  <diagram name="Page-1" id="9f46799a-70d6-7492-0946-bef42562c5a5">
    <mxGraphModel dx="744" dy="406" grid="1" gridSize="10" guides="1" tooltips="1" connect="1" arrows="1" fold="1" page="1" pageScale="1" pageWidth="1100" pageHeight="850" background="none" math="0" shadow="0">
      <root>
        <mxCell id="0" />
        <mxCell id="1" parent="0" />
        <mxCell id="TUf3GPkxzCGcySICfNlQ-50" value="" style="group;verticalAlign=middle;align=center;" parent="1" vertex="1" connectable="0">
          <mxGeometry x="370" y="306" width="230" height="238" as="geometry" />
        </mxCell>
        <mxCell id="TUf3GPkxzCGcySICfNlQ-17" value="初始数据段" style="text;strokeColor=default;fillColor=none;align=center;verticalAlign=middle;spacingLeft=4;spacingRight=4;overflow=hidden;rotatable=0;points=[[0,0.5],[1,0.5]];portConstraint=eastwest;whiteSpace=wrap;html=1;" parent="TUf3GPkxzCGcySICfNlQ-50" vertex="1">
          <mxGeometry x="90" y="186" width="140" height="26" as="geometry" />
        </mxCell>
        <mxCell id="TUf3GPkxzCGcySICfNlQ-21" value="text 数据段&lt;div&gt;&lt;br&gt;&lt;/div&gt;" style="text;strokeColor=default;fillColor=none;align=center;verticalAlign=middle;spacingLeft=4;spacingRight=4;overflow=hidden;rotatable=0;points=[[0,0.5],[1,0.5]];portConstraint=eastwest;whiteSpace=wrap;html=1;" parent="TUf3GPkxzCGcySICfNlQ-50" vertex="1">
          <mxGeometry x="90" y="212" width="140" height="26" as="geometry" />
        </mxCell>
        <mxCell id="TUf3GPkxzCGcySICfNlQ-22" value="bss 数据段" style="text;strokeColor=default;fillColor=none;align=center;verticalAlign=middle;spacingLeft=4;spacingRight=4;overflow=hidden;rotatable=0;points=[[0,0.5],[1,0.5]];portConstraint=eastwest;whiteSpace=wrap;html=1;" parent="TUf3GPkxzCGcySICfNlQ-50" vertex="1">
          <mxGeometry x="90" y="160" width="140" height="26" as="geometry" />
        </mxCell>
        <mxCell id="TUf3GPkxzCGcySICfNlQ-24" value="文件的存储映射部分" style="text;strokeColor=#000000;fillColor=#dae8fc;align=center;verticalAlign=middle;spacingLeft=4;spacingRight=4;overflow=hidden;rotatable=0;points=[[0,0.5],[1,0.5]];portConstraint=eastwest;whiteSpace=wrap;html=1;" parent="TUf3GPkxzCGcySICfNlQ-50" vertex="1">
          <mxGeometry x="90" y="76" width="140" height="40" as="geometry" />
        </mxCell>
        <mxCell id="TUf3GPkxzCGcySICfNlQ-26" value="" style="endArrow=none;html=1;rounded=0;" parent="TUf3GPkxzCGcySICfNlQ-50" edge="1">
          <mxGeometry width="50" height="50" relative="1" as="geometry">
            <mxPoint y="75.60000000000002" as="sourcePoint" />
            <mxPoint x="90" y="75.60000000000002" as="targetPoint" />
          </mxGeometry>
        </mxCell>
        <mxCell id="TUf3GPkxzCGcySICfNlQ-27" value="" style="endArrow=classic;html=1;rounded=0;endFill=1;" parent="TUf3GPkxzCGcySICfNlQ-50" edge="1">
          <mxGeometry width="50" height="50" relative="1" as="geometry">
            <mxPoint y="116" as="sourcePoint" />
            <mxPoint x="90" y="116" as="targetPoint" />
          </mxGeometry>
        </mxCell>
        <mxCell id="TUf3GPkxzCGcySICfNlQ-29" value="开始地址" style="text;strokeColor=none;fillColor=none;align=left;verticalAlign=middle;spacingLeft=4;spacingRight=4;overflow=hidden;points=[[0,0.5],[1,0.5]];portConstraint=eastwest;rotatable=0;whiteSpace=wrap;html=1;fontSize=6;" parent="TUf3GPkxzCGcySICfNlQ-50" vertex="1">
          <mxGeometry y="96" width="70" height="20" as="geometry" />
        </mxCell>
        <mxCell id="TUf3GPkxzCGcySICfNlQ-30" value="高地址" style="text;strokeColor=none;fillColor=none;align=left;verticalAlign=middle;spacingLeft=4;spacingRight=4;overflow=hidden;points=[[0,0.5],[1,0.5]];portConstraint=eastwest;rotatable=0;whiteSpace=wrap;html=1;fontSize=6;" parent="TUf3GPkxzCGcySICfNlQ-50" vertex="1">
          <mxGeometry x="60" width="70" height="20" as="geometry" />
        </mxCell>
        <mxCell id="TUf3GPkxzCGcySICfNlQ-31" value="低地址" style="text;strokeColor=none;fillColor=none;align=left;verticalAlign=middle;spacingLeft=4;spacingRight=4;overflow=hidden;points=[[0,0.5],[1,0.5]];portConstraint=eastwest;rotatable=0;whiteSpace=wrap;html=1;fontSize=6;" parent="TUf3GPkxzCGcySICfNlQ-50" vertex="1">
          <mxGeometry x="60" y="218" width="70" height="20" as="geometry" />
        </mxCell>
        <mxCell id="TUf3GPkxzCGcySICfNlQ-33" value="" style="text;strokeColor=default;fillColor=none;align=center;verticalAlign=middle;spacingLeft=4;spacingRight=4;overflow=hidden;rotatable=0;points=[[0,0.5],[1,0.5]];portConstraint=eastwest;whiteSpace=wrap;html=1;" parent="TUf3GPkxzCGcySICfNlQ-50" vertex="1">
          <mxGeometry x="90" y="116" width="140" height="44" as="geometry" />
        </mxCell>
        <mxCell id="TUf3GPkxzCGcySICfNlQ-34" value="" style="text;strokeColor=default;fillColor=none;align=center;verticalAlign=middle;spacingLeft=4;spacingRight=4;overflow=hidden;rotatable=0;points=[[0,0.5],[1,0.5]];portConstraint=eastwest;whiteSpace=wrap;html=1;" parent="TUf3GPkxzCGcySICfNlQ-50" vertex="1">
          <mxGeometry x="90" y="26" width="140" height="50" as="geometry" />
        </mxCell>
        <mxCell id="TUf3GPkxzCGcySICfNlQ-35" value="" style="text;strokeColor=default;fillColor=none;align=center;verticalAlign=middle;spacingLeft=4;spacingRight=4;overflow=hidden;rotatable=0;points=[[0,0.5],[1,0.5]];portConstraint=eastwest;whiteSpace=wrap;html=1;" parent="TUf3GPkxzCGcySICfNlQ-50" vertex="1">
          <mxGeometry x="90" width="140" height="26" as="geometry" />
        </mxCell>
        <mxCell id="TUf3GPkxzCGcySICfNlQ-36" value="堆" style="text;strokeColor=default;fillColor=none;align=center;verticalAlign=middle;spacingLeft=4;spacingRight=4;overflow=hidden;rotatable=0;points=[[0,0.5],[1,0.5]];portConstraint=eastwest;whiteSpace=wrap;html=1;dashed=1;" parent="TUf3GPkxzCGcySICfNlQ-50" vertex="1">
          <mxGeometry x="90" y="134" width="140" height="26" as="geometry" />
        </mxCell>
        <mxCell id="TUf3GPkxzCGcySICfNlQ-38" value="栈" style="text;strokeColor=default;fillColor=none;align=center;verticalAlign=middle;spacingLeft=4;spacingRight=4;overflow=hidden;rotatable=0;points=[[0,0.5],[1,0.5]];portConstraint=eastwest;whiteSpace=wrap;html=1;dashed=1;" parent="TUf3GPkxzCGcySICfNlQ-50" vertex="1">
          <mxGeometry x="90" y="26" width="140" height="26" as="geometry" />
        </mxCell>
        <mxCell id="TUf3GPkxzCGcySICfNlQ-68" value="" style="group" parent="1" vertex="1" connectable="0">
          <mxGeometry x="710" y="306" width="140" height="182" as="geometry" />
        </mxCell>
        <mxCell id="TUf3GPkxzCGcySICfNlQ-53" value="&lt;div&gt;&lt;br&gt;&lt;/div&gt;" style="text;strokeColor=default;fillColor=none;align=center;verticalAlign=middle;spacingLeft=4;spacingRight=4;overflow=hidden;rotatable=0;points=[[0,0.5],[1,0.5]];portConstraint=eastwest;whiteSpace=wrap;html=1;" parent="TUf3GPkxzCGcySICfNlQ-68" vertex="1">
          <mxGeometry y="126" width="140" height="56" as="geometry" />
        </mxCell>
        <mxCell id="TUf3GPkxzCGcySICfNlQ-66" value="&lt;div&gt;&lt;br&gt;&lt;/div&gt;" style="text;strokeColor=default;fillColor=none;align=center;verticalAlign=middle;spacingLeft=4;spacingRight=4;overflow=hidden;rotatable=0;points=[[0,0.5],[1,0.5]];portConstraint=eastwest;whiteSpace=wrap;html=1;" parent="TUf3GPkxzCGcySICfNlQ-68" vertex="1">
          <mxGeometry width="140" height="56" as="geometry" />
        </mxCell>
        <mxCell id="TUf3GPkxzCGcySICfNlQ-67" value="文件存储映射部分" style="text;strokeColor=#000000;fillColor=#dae8fc;align=center;verticalAlign=middle;spacingLeft=4;spacingRight=4;overflow=hidden;rotatable=0;points=[[0,0.5],[1,0.5]];portConstraint=eastwest;whiteSpace=wrap;html=1;" parent="TUf3GPkxzCGcySICfNlQ-68" vertex="1">
          <mxGeometry y="56" width="140" height="70" as="geometry" />
        </mxCell>
        <mxCell id="TUf3GPkxzCGcySICfNlQ-69" value="" style="endArrow=classic;html=1;rounded=0;exitX=0;exitY=0.026;exitDx=0;exitDy=0;exitPerimeter=0;dashed=1;" parent="1" source="TUf3GPkxzCGcySICfNlQ-67" edge="1">
          <mxGeometry width="50" height="50" relative="1" as="geometry">
            <mxPoint x="620" y="470" as="sourcePoint" />
            <mxPoint x="600" y="381" as="targetPoint" />
          </mxGeometry>
        </mxCell>
        <mxCell id="3d0LnBWQi5HhHZVqhPhs-1" value="" style="endArrow=classic;html=1;rounded=0;exitX=-0.004;exitY=1.009;exitDx=0;exitDy=0;exitPerimeter=0;entryX=1.013;entryY=0.993;entryDx=0;entryDy=0;entryPerimeter=0;dashed=1;" edge="1" parent="1" source="TUf3GPkxzCGcySICfNlQ-67" target="TUf3GPkxzCGcySICfNlQ-24">
          <mxGeometry width="50" height="50" relative="1" as="geometry">
            <mxPoint x="640" y="290" as="sourcePoint" />
            <mxPoint x="670" y="380" as="targetPoint" />
          </mxGeometry>
        </mxCell>
        <mxCell id="3d0LnBWQi5HhHZVqhPhs-2" value="" style="endArrow=none;dashed=1;html=1;strokeWidth=2;rounded=0;exitX=0.981;exitY=1.015;exitDx=0;exitDy=0;exitPerimeter=0;" edge="1" parent="1" source="TUf3GPkxzCGcySICfNlQ-66">
          <mxGeometry width="50" height="50" relative="1" as="geometry">
            <mxPoint x="880" y="370" as="sourcePoint" />
            <mxPoint x="960" y="363" as="targetPoint" />
          </mxGeometry>
        </mxCell>
        <mxCell id="3d0LnBWQi5HhHZVqhPhs-3" value="" style="endArrow=none;dashed=1;html=1;strokeWidth=2;rounded=0;" edge="1" parent="1">
          <mxGeometry width="50" height="50" relative="1" as="geometry">
            <mxPoint x="850" y="306" as="sourcePoint" />
            <mxPoint x="960" y="306" as="targetPoint" />
          </mxGeometry>
        </mxCell>
        <mxCell id="3d0LnBWQi5HhHZVqhPhs-4" value="" style="endArrow=none;dashed=1;html=1;strokeWidth=2;rounded=0;exitX=1.004;exitY=0.011;exitDx=0;exitDy=0;exitPerimeter=0;" edge="1" parent="1" source="TUf3GPkxzCGcySICfNlQ-53">
          <mxGeometry width="50" height="50" relative="1" as="geometry">
            <mxPoint x="840" y="440" as="sourcePoint" />
            <mxPoint x="960" y="433" as="targetPoint" />
          </mxGeometry>
        </mxCell>
        <mxCell id="3d0LnBWQi5HhHZVqhPhs-22" value="&lt;font style=&quot;font-size: 9px;&quot;&gt;off&lt;/font&gt;" style="text;strokeColor=none;fillColor=none;align=left;verticalAlign=middle;spacingLeft=4;spacingRight=4;overflow=hidden;points=[[0,0.5],[1,0.5]];portConstraint=eastwest;rotatable=0;whiteSpace=wrap;html=1;fontSize=6;" vertex="1" parent="1">
          <mxGeometry x="900" y="320" width="40" height="20" as="geometry" />
        </mxCell>
        <mxCell id="3d0LnBWQi5HhHZVqhPhs-24" value="&lt;font style=&quot;font-size: 9px;&quot;&gt;len&amp;nbsp;&lt;/font&gt;" style="text;strokeColor=none;fillColor=none;align=left;verticalAlign=middle;spacingLeft=4;spacingRight=4;overflow=hidden;points=[[0,0.5],[1,0.5]];portConstraint=eastwest;rotatable=0;whiteSpace=wrap;html=1;fontSize=6;" vertex="1" parent="1">
          <mxGeometry x="900" y="387" width="40" height="20" as="geometry" />
        </mxCell>
        <mxCell id="3d0LnBWQi5HhHZVqhPhs-26" value="" style="endArrow=classic;startArrow=classic;html=1;rounded=0;dashed=1;" edge="1" parent="1">
          <mxGeometry width="50" height="50" relative="1" as="geometry">
            <mxPoint x="920" y="430" as="sourcePoint" />
            <mxPoint x="920" y="370" as="targetPoint" />
          </mxGeometry>
        </mxCell>
      </root>
    </mxGraphModel>
  </diagram>
</mxfile>
